<?xml version="1.0" standalone="no"?>
<svg xmlns:xlink="http://www.w3.org/1999/xlink" id="wave" style="transform:rotate(180deg); transition: 0.3s" viewBox="0 0 1440 280" version="1.1" xmlns="http://www.w3.org/2000/svg"><defs><linearGradient id="sw-gradient-0" x1="0" x2="0" y1="1" y2="0"><stop stop-color="rgba(253, 195, 18, 1)" offset="0%"/><stop stop-color="rgba(253, 195, 18, 1)" offset="100%"/></linearGradient></defs><path style="transform:translate(0, 0px); opacity:1" fill="url(#sw-gradient-0)" d="M0,168L40,149.3C80,131,160,93,240,74.7C320,56,400,56,480,70C560,84,640,112,720,130.7C800,149,880,159,960,144.7C1040,131,1120,93,1200,79.3C1280,65,1360,75,1440,98C1520,121,1600,159,1680,154C1760,149,1840,103,1920,107.3C2000,112,2080,168,2160,168C2240,168,2320,112,2400,79.3C2480,47,2560,37,2640,70C2720,103,2800,177,2880,205.3C2960,233,3040,215,3120,196C3200,177,3280,159,3360,126C3440,93,3520,47,3600,28C3680,9,3760,19,3840,28C3920,37,4000,47,4080,51.3C4160,56,4240,56,4320,65.3C4400,75,4480,93,4560,107.3C4640,121,4720,131,4800,112C4880,93,4960,47,5040,46.7C5120,47,5200,93,5280,93.3C5360,93,5440,47,5520,51.3C5600,56,5680,112,5720,140L5760,168L5760,280L5720,280C5680,280,5600,280,5520,280C5440,280,5360,280,5280,280C5200,280,5120,280,5040,280C4960,280,4880,280,4800,280C4720,280,4640,280,4560,280C4480,280,4400,280,4320,280C4240,280,4160,280,4080,280C4000,280,3920,280,3840,280C3760,280,3680,280,3600,280C3520,280,3440,280,3360,280C3280,280,3200,280,3120,280C3040,280,2960,280,2880,280C2800,280,2720,280,2640,280C2560,280,2480,280,2400,280C2320,280,2240,280,2160,280C2080,280,2000,280,1920,280C1840,280,1760,280,1680,280C1600,280,1520,280,1440,280C1360,280,1280,280,1200,280C1120,280,1040,280,960,280C880,280,800,280,720,280C640,280,560,280,480,280C400,280,320,280,240,280C160,280,80,280,40,280L0,280Z"/></svg>