<?xml version="1.0" standalone="no"?>
<svg xmlns:xlink="http://www.w3.org/1999/xlink" id="wave" style="transform:rotate(180deg); transition: 0.3s" viewBox="0 0 1440 250" version="1.1" xmlns="http://www.w3.org/2000/svg"><defs><linearGradient id="sw-gradient-0" x1="0" x2="0" y1="1" y2="0"><stop stop-color="rgba(253, 195, 18, 1)" offset="0%"/><stop stop-color="rgba(253, 195, 18, 1)" offset="100%"/></linearGradient></defs><path style="transform:translate(0, 0px); opacity:1" fill="url(#sw-gradient-0)" d="M0,150L34.3,133.3C68.6,117,137,83,206,66.7C274.3,50,343,50,411,70.8C480,92,549,133,617,154.2C685.7,175,754,175,823,150C891.4,125,960,75,1029,75C1097.1,75,1166,125,1234,150C1302.9,175,1371,175,1440,150C1508.6,125,1577,75,1646,45.8C1714.3,17,1783,8,1851,4.2C1920,0,1989,0,2057,16.7C2125.7,33,2194,67,2263,95.8C2331.4,125,2400,150,2469,137.5C2537.1,125,2606,75,2674,54.2C2742.9,33,2811,42,2880,37.5C2948.6,33,3017,17,3086,41.7C3154.3,67,3223,133,3291,162.5C3360,192,3429,183,3497,179.2C3565.7,175,3634,175,3703,162.5C3771.4,150,3840,125,3909,100C3977.1,75,4046,50,4114,66.7C4182.9,83,4251,142,4320,145.8C4388.6,150,4457,100,4526,70.8C4594.3,42,4663,33,4731,33.3C4800,33,4869,42,4903,45.8L4937.1,50L4937.1,250L4902.9,250C4868.6,250,4800,250,4731,250C4662.9,250,4594,250,4526,250C4457.1,250,4389,250,4320,250C4251.4,250,4183,250,4114,250C4045.7,250,3977,250,3909,250C3840,250,3771,250,3703,250C3634.3,250,3566,250,3497,250C3428.6,250,3360,250,3291,250C3222.9,250,3154,250,3086,250C3017.1,250,2949,250,2880,250C2811.4,250,2743,250,2674,250C2605.7,250,2537,250,2469,250C2400,250,2331,250,2263,250C2194.3,250,2126,250,2057,250C1988.6,250,1920,250,1851,250C1782.9,250,1714,250,1646,250C1577.1,250,1509,250,1440,250C1371.4,250,1303,250,1234,250C1165.7,250,1097,250,1029,250C960,250,891,250,823,250C754.3,250,686,250,617,250C548.6,250,480,250,411,250C342.9,250,274,250,206,250C137.1,250,69,250,34,250L0,250Z"/></svg>